<svg width="1358" height="340" viewBox="0 0 1358 340" fill="none" xmlns="http://www.w3.org/2000/svg">
<g clip-path="url(#clip0_15_78)">
<rect width="1358" height="340" fill="#F8FAFC"/>
<g filter="url(#filter0_f_15_78)">
<ellipse cx="635" cy="206.5" rx="74" ry="74.5" fill="#FBCFE8"/>
</g>
<g filter="url(#filter1_f_15_78)">
<ellipse cx="710.632" cy="131.421" rx="71.4737" ry="74.4211" fill="#C5DFFF"/>
</g>
<path d="M-3.64436 270.143C32.787 264.1 143.887 244.296 151.354 135.12C158.094 36.582 244.907 -1.09215 272.254 -6.57634" stroke="#F1F5F9" stroke-width="4"/>
<path d="M-17.6746 193.433C10.36 193.333 95.8032 191.717 97.5354 88.5035C99.0988 -4.65367 165.038 -27.1406 186.047 -28.1212" stroke="#F1F5F9" stroke-width="4"/>
<path d="M-88.6746 137.564C-53.7562 134.751 52.7939 124.815 64.9268 17.5016C75.8774 -79.3558 160.158 -109.073 186.414 -112.121" stroke="#F1F5F9" stroke-width="4"/>
<path d="M1175.33 462.564C1210.24 459.751 1316.79 449.815 1328.93 342.502C1339.88 245.644 1424.16 215.927 1450.41 212.879" stroke="#F1F5F9" stroke-width="4"/>
<path d="M1159.33 400.433C1187.36 400.333 1272.8 398.717 1274.54 295.503C1276.1 202.346 1342.04 179.859 1363.05 178.879" stroke="#F1F5F9" stroke-width="4"/>
<path d="M1088.33 344.564C1123.24 341.751 1229.79 331.815 1241.93 224.502C1252.88 127.644 1337.16 97.9273 1363.41 94.8788" stroke="#F1F5F9" stroke-width="4"/>
</g>
<defs>
<filter id="filter0_f_15_78" x="441" y="12" width="388" height="389" filterUnits="userSpaceOnUse" color-interpolation-filters="sRGB">
<feFlood flood-opacity="0" result="BackgroundImageFix"/>
<feBlend mode="normal" in="SourceGraphic" in2="BackgroundImageFix" result="shape"/>
<feGaussianBlur stdDeviation="60" result="effect1_foregroundBlur_15_78"/>
</filter>
<filter id="filter1_f_15_78" x="519.158" y="-63" width="382.947" height="388.842" filterUnits="userSpaceOnUse" color-interpolation-filters="sRGB">
<feFlood flood-opacity="0" result="BackgroundImageFix"/>
<feBlend mode="normal" in="SourceGraphic" in2="BackgroundImageFix" result="shape"/>
<feGaussianBlur stdDeviation="60" result="effect1_foregroundBlur_15_78"/>
</filter>
<clipPath id="clip0_15_78">
<rect width="1358" height="340" fill="white"/>
</clipPath>
</defs>
</svg>
