<svg width="320" height="187" viewBox="0 0 320 187" fill="none" xmlns="http://www.w3.org/2000/svg">
<path d="M97.8556 185.617L94.5407 184.192L92.2667 167.215H61.9837L59.5188 184.122L56.5531 185.637C56.4112 185.71 56.2974 185.829 56.2302 185.976C56.163 186.122 56.1462 186.288 56.1827 186.446C56.2191 186.604 56.3066 186.744 56.431 186.845C56.5554 186.945 56.7094 187 56.8681 187H97.5824C97.745 187 97.9026 186.943 98.0284 186.837C98.1543 186.732 98.2406 186.586 98.2728 186.423C98.3049 186.26 98.281 186.091 98.2049 185.944C98.1289 185.797 98.0055 185.682 97.8556 185.617V185.617Z" fill="#E6E6E6"/>
<path d="M151.514 169.768H2.93698C2.15744 169.766 1.41043 169.451 0.859825 168.89C0.309224 168.33 5.37288e-06 167.571 0 166.78V145.515H154.451V166.78C154.451 167.571 154.141 168.33 153.591 168.89C153.04 169.451 152.293 169.766 151.514 169.768V169.768Z" fill="#CCCCCC"/>
<path d="M154.451 155.727H0V66.094C0.00108595 65.1533 0.374607 64.2515 1.03861 63.5864C1.70261 62.9213 2.60287 62.5471 3.54188 62.5461H150.909C151.848 62.5471 152.748 62.9213 153.412 63.5864C154.076 64.2515 154.449 65.1533 154.451 66.094V155.727Z" fill="#3F3D56"/>
<path d="M145.333 149.345H9.11717C8.3921 149.344 7.69696 149.055 7.18425 148.54C6.67154 148.026 6.38314 147.329 6.38232 146.601V71.6721C6.38313 70.9447 6.67152 70.2473 7.18423 69.7329C7.69693 69.2185 8.39208 68.9292 9.11717 68.9283H145.333C146.059 68.9292 146.754 69.2185 147.266 69.7329C147.779 70.2473 148.068 70.9447 148.068 71.6721V146.601C148.068 147.329 147.779 148.026 147.266 148.54C146.754 149.055 146.059 149.344 145.333 149.345Z" fill="white"/>
<path d="M143.894 187H12.4712C12.3797 187 12.2919 186.966 12.2272 186.907C12.1626 186.847 12.1262 186.766 12.1262 186.681C12.1262 186.596 12.1626 186.515 12.2272 186.455C12.2919 186.395 12.3797 186.362 12.4712 186.362H143.894C143.985 186.362 144.073 186.395 144.138 186.455C144.203 186.515 144.239 186.596 144.239 186.681C144.239 186.766 144.203 186.847 144.138 186.907C144.073 186.966 143.985 187 143.894 187Z" fill="#CCCCCC"/>
<path d="M77.4212 138.436C93.5525 138.436 106.63 125.359 106.63 109.228C106.63 93.0968 93.5525 80.0198 77.4212 80.0198C61.2899 80.0198 48.2129 93.0968 48.2129 109.228C48.2129 125.359 61.2899 138.436 77.4212 138.436Z" fill="#10B981"/>
<path d="M74.5267 120.37C73.8696 120.371 73.23 120.159 72.7042 119.765L72.6716 119.74L65.8073 114.489C65.4894 114.245 65.2226 113.941 65.0221 113.595C64.8217 113.248 64.6915 112.865 64.6391 112.468C64.5866 112.071 64.6129 111.667 64.7164 111.28C64.8199 110.893 64.9986 110.53 65.2424 110.212C65.4861 109.894 65.7901 109.628 66.1369 109.427C66.4837 109.227 66.8666 109.096 67.2638 109.044C67.6609 108.992 68.0645 109.018 68.4515 109.121C68.8385 109.225 69.2013 109.404 69.5192 109.647L73.9654 113.057L84.4719 99.3499C84.7156 99.0321 85.0194 98.7655 85.3661 98.5651C85.7128 98.3647 86.0955 98.2346 86.4925 98.1822C86.8895 98.1298 87.2929 98.156 87.6797 98.2595C88.0666 98.363 88.4292 98.5416 88.747 98.7852L88.7479 98.7859L88.6827 98.8765L88.7497 98.7859C89.3908 99.2786 89.8102 100.006 89.916 100.807C90.0217 101.609 89.8051 102.42 89.3137 103.062L76.9557 119.177C76.6698 119.548 76.3022 119.849 75.8814 120.055C75.4607 120.261 74.998 120.368 74.5294 120.367L74.5267 120.37Z" fill="white"/>
<path d="M300.054 44.4382H299.028V16.2909C299.028 14.1516 298.607 12.0331 297.788 10.0566C296.97 8.08015 295.771 6.28425 294.259 4.7715C292.748 3.25875 290.953 2.05877 288.978 1.24008C287.003 0.421381 284.886 1.81263e-06 282.748 0H223.154C218.836 -8.23656e-06 214.695 1.71634 211.642 4.77146C208.589 7.82659 206.874 11.9702 206.874 16.2908V170.709C206.874 172.848 207.295 174.967 208.113 176.943C208.931 178.92 210.13 180.716 211.642 182.228C213.154 183.741 214.948 184.941 216.923 185.76C218.899 186.579 221.016 187 223.154 187H282.748C287.065 187 291.206 185.284 294.259 182.229C297.312 179.173 299.028 175.03 299.028 170.709V64.4739H300.054V44.4382Z" fill="#3F3D56"/>
<path d="M283.33 3.82935H275.487C275.848 4.71101 275.986 5.66758 275.888 6.61478C275.791 7.56199 275.461 8.47078 274.929 9.26107C274.396 10.0514 273.677 10.6989 272.834 11.1467C271.991 11.5944 271.051 11.8287 270.096 11.8287H235.676C234.721 11.8287 233.781 11.5944 232.938 11.1467C232.096 10.6989 231.376 10.0514 230.844 9.26107C230.311 8.47078 229.981 7.562 229.884 6.61479C229.786 5.66758 229.924 4.71101 230.285 3.82935H222.96C221.35 3.82934 219.756 4.14547 218.269 4.75966C216.782 5.37385 215.431 6.27408 214.293 7.40896C213.155 8.54384 212.252 9.89114 211.636 11.3739C211.02 12.8567 210.703 14.446 210.703 16.0509V170.949C210.703 172.554 211.02 174.143 211.636 175.626C212.252 177.109 213.155 178.456 214.293 179.591C215.431 180.726 216.782 181.626 218.269 182.24C219.756 182.855 221.35 183.171 222.96 183.171H283.33C284.939 183.171 286.533 182.855 288.02 182.24C289.507 181.626 290.859 180.726 291.997 179.591C293.135 178.456 294.038 177.109 294.654 175.626C295.27 174.143 295.587 172.554 295.587 170.949V16.0509C295.587 14.446 295.27 12.8567 294.654 11.3739C294.038 9.89114 293.135 8.54384 291.997 7.40896C290.859 6.27408 289.507 5.37385 288.02 4.75966C286.533 4.14547 284.939 3.82934 283.33 3.82935Z" fill="white"/>
<path d="M318.855 187H186.797C186.705 187 186.617 186.966 186.552 186.907C186.487 186.847 186.45 186.766 186.45 186.681C186.45 186.596 186.487 186.515 186.552 186.455C186.617 186.395 186.705 186.362 186.797 186.362H318.855C318.947 186.362 319.035 186.395 319.1 186.455C319.165 186.515 319.201 186.596 319.201 186.681C319.201 186.766 319.165 186.847 319.1 186.907C319.035 186.966 318.947 187 318.855 187Z" fill="#CBCBCB"/>
<path d="M280.469 95.636C281.702 80.7459 270.63 67.676 255.74 66.4437C240.85 65.2113 227.78 76.2832 226.548 91.1733C225.315 106.063 236.387 119.133 251.277 120.366C266.167 121.598 279.237 110.526 280.469 95.636Z" fill="#F87171"/>
<path d="M260.615 82.1325L253.509 89.2389L246.402 82.1325C245.252 80.9822 243.387 80.9822 242.237 82.1325C241.086 83.2829 241.086 85.148 242.237 86.2983L249.343 93.4047L242.237 100.511C241.087 101.662 241.089 103.528 242.24 104.677C243.39 105.825 245.252 105.825 246.402 104.677L253.509 97.5705L260.615 104.677C261.767 105.826 263.632 105.824 264.781 104.673C265.929 103.523 265.929 101.661 264.781 100.511L257.675 93.4047L264.781 86.2983C265.931 85.148 265.931 83.2829 264.781 82.1325C263.631 80.9822 261.765 80.9822 260.615 82.1325V82.1325Z" fill="white"/>
</svg>
